<svg xmlns="http://www.w3.org/2000/svg" viewBox="0 0 720 420" width="100%" preserveAspectRatio="xMidYMid meet" font-family="Inter, sans-serif"><rect width="100%" height="100%" fill="#ffffff"/><text x="360" y="24" text-anchor="middle" font-size="16" font-weight="bold" fill="#111827">XOR Learning Curve — BP vs EDLA</text><line x1="50" y1="370.00" x2="670" y2="370.00" stroke="#e5e7eb" stroke-width="1"/><text x="42.00" y="374.00" text-anchor="end" font-family="Inter, sans-serif" font-size="11" fill="#6b7280">0.000</text><line x1="50" y1="306.00" x2="670" y2="306.00" stroke="#e5e7eb" stroke-width="1"/><text x="42.00" y="310.00" text-anchor="end" font-family="Inter, sans-serif" font-size="11" fill="#6b7280">0.128</text><line x1="50" y1="242.00" x2="670" y2="242.00" stroke="#e5e7eb" stroke-width="1"/><text x="42.00" y="246.00" text-anchor="end" font-family="Inter, sans-serif" font-size="11" fill="#6b7280">0.256</text><line x1="50" y1="178.00" x2="670" y2="178.00" stroke="#e5e7eb" stroke-width="1"/><text x="42.00" y="182.00" text-anchor="end" font-family="Inter, sans-serif" font-size="11" fill="#6b7280">0.383</text><line x1="50" y1="114.00" x2="670" y2="114.00" stroke="#e5e7eb" stroke-width="1"/><text x="42.00" y="118.00" text-anchor="end" font-family="Inter, sans-serif" font-size="11" fill="#6b7280">0.511</text><line x1="50" y1="50.00" x2="670" y2="50.00" stroke="#e5e7eb" stroke-width="1"/><text x="42.00" y="54.00" text-anchor="end" font-family="Inter, sans-serif" font-size="11" fill="#6b7280">0.639</text><line x1="50.00" y1="370" x2="50.00" y2="374" stroke="#6b7280" stroke-width="1"/><text x="50.00" y="388.00" text-anchor="middle" font-family="Inter, sans-serif" font-size="11" fill="#6b7280">0</text><line x1="174.00" y1="370" x2="174.00" y2="374" stroke="#6b7280" stroke-width="1"/><text x="174.00" y="388.00" text-anchor="middle" font-family="Inter, sans-serif" font-size="11" fill="#6b7280">100</text><line x1="298.00" y1="370" x2="298.00" y2="374" stroke="#6b7280" stroke-width="1"/><text x="298.00" y="388.00" text-anchor="middle" font-family="Inter, sans-serif" font-size="11" fill="#6b7280">200</text><line x1="422.00" y1="370" x2="422.00" y2="374" stroke="#6b7280" stroke-width="1"/><text x="422.00" y="388.00" text-anchor="middle" font-family="Inter, sans-serif" font-size="11" fill="#6b7280">300</text><line x1="546.00" y1="370" x2="546.00" y2="374" stroke="#6b7280" stroke-width="1"/><text x="546.00" y="388.00" text-anchor="middle" font-family="Inter, sans-serif" font-size="11" fill="#6b7280">400</text><line x1="670.00" y1="370" x2="670.00" y2="374" stroke="#6b7280" stroke-width="1"/><text x="670.00" y="388.00" text-anchor="middle" font-family="Inter, sans-serif" font-size="11" fill="#6b7280">500</text><line x1="50" y1="370" x2="670" y2="370" stroke="#374151" stroke-width="1.5"/><line x1="50" y1="50" x2="50" y2="370" stroke="#374151" stroke-width="1.5"/><text x="360" y="408" text-anchor="middle" font-size="12" fill="#374151">epoch</text><text x="14" y="210" text-anchor="middle" font-size="12" fill="#374151" transform="rotate(-90 14,210)">MSE loss</text><polyline fill="none" stroke="#3b82f6" stroke-width="2" points="50.00,65.24 51.24,246.38 52.48,260.56 53.72,272.68 54.96,283.46 56.20,293.37 57.44,302.71 58.68,311.64 59.92,320.15 61.16,328.15 62.40,335.53 63.64,342.16 64.88,347.94 66.12,352.86 67.36,356.92 68.60,360.19 69.84,362.76 71.08,364.73 72.32,366.21 73.56,367.31 74.80,368.10 76.04,368.68 77.28,369.08 78.52,369.37 79.76,369.57 81.00,369.70 82.24,369.80 83.48,369.86 84.72,369.91 85.96,369.94 87.20,369.96 88.44,369.97 89.68,369.98 90.92,369.99 92.16,369.99 93.40,369.99 94.64,370.00 95.88,370.00 97.12,370.00 98.36,370.00 99.60,370.00 100.84,370.00 102.08,370.00 103.32,370.00 104.56,370.00 105.80,370.00 107.04,370.00 108.28,370.00 109.52,370.00 110.76,370.00 112.00,370.00 113.24,370.00 114.48,370.00 115.72,370.00 116.96,370.00 118.20,370.00 119.44,370.00 120.68,370.00 121.92,370.00 123.16,370.00 124.40,370.00 125.64,370.00 126.88,370.00 128.12,370.00 129.36,370.00 130.60,370.00 131.84,370.00 133.08,370.00 134.32,370.00 135.56,370.00 136.80,370.00 138.04,370.00 139.28,370.00 140.52,370.00 141.76,370.00 143.00,370.00 144.24,370.00 145.48,370.00 146.72,370.00 147.96,370.00 149.20,370.00 150.44,370.00 151.68,370.00 152.92,370.00 154.16,370.00 155.40,370.00 156.64,370.00 157.88,370.00 159.12,370.00 160.36,370.00 161.60,370.00 162.84,370.00 164.08,370.00 165.32,370.00 166.56,370.00 167.80,370.00 169.04,370.00 170.28,370.00 171.52,370.00 172.76,370.00 174.00,370.00 175.24,370.00 176.48,370.00 177.72,370.00 178.96,370.00 180.20,370.00 181.44,370.00 182.68,370.00 183.92,370.00 185.16,370.00 186.40,370.00 187.64,370.00 188.88,370.00 190.12,370.00 191.36,370.00 192.60,370.00 193.84,370.00 195.08,370.00 196.32,370.00 197.56,370.00 198.80,370.00 200.04,370.00 201.28,370.00 202.52,370.00 203.76,370.00 205.00,370.00 206.24,370.00 207.48,370.00 208.72,370.00 209.96,370.00 211.20,370.00 212.44,370.00 213.68,370.00 214.92,370.00 216.16,370.00 217.40,370.00 218.64,370.00 219.88,370.00 221.12,370.00 222.36,370.00 223.60,370.00 224.84,370.00 226.08,370.00 227.32,370.00 228.56,370.00 229.80,370.00 231.04,370.00 232.28,370.00 233.52,370.00 234.76,370.00 236.00,370.00 237.24,370.00 238.48,370.00 239.72,370.00 240.96,370.00 242.20,370.00 243.44,370.00 244.68,370.00 245.92,370.00 247.16,370.00 248.40,370.00 249.64,370.00 250.88,370.00 252.12,370.00 253.36,370.00 254.60,370.00 255.84,370.00 257.08,370.00 258.32,370.00 259.56,370.00 260.80,370.00 262.04,370.00 263.28,370.00 264.52,370.00 265.76,370.00 267.00,370.00 268.24,370.00 269.48,370.00 270.72,370.00 271.96,370.00 273.20,370.00 274.44,370.00 275.68,370.00 276.92,370.00 278.16,370.00 279.40,370.00 280.64,370.00 281.88,370.00 283.12,370.00 284.36,370.00 285.60,370.00 286.84,370.00 288.08,370.00 289.32,370.00 290.56,370.00 291.80,370.00 293.04,370.00 294.28,370.00 295.52,370.00 296.76,370.00 298.00,370.00 299.24,370.00 300.48,370.00 301.72,370.00 302.96,370.00 304.20,370.00 305.44,370.00 306.68,370.00 307.92,370.00 309.16,370.00 310.40,370.00 311.64,370.00 312.88,370.00 314.12,370.00 315.36,370.00 316.60,370.00 317.84,370.00 319.08,370.00 320.32,370.00 321.56,370.00 322.80,370.00 324.04,370.00 325.28,370.00 326.52,370.00 327.76,370.00 329.00,370.00 330.24,370.00 331.48,370.00 332.72,370.00 333.96,370.00 335.20,370.00 336.44,370.00 337.68,370.00 338.92,370.00 340.16,370.00 341.40,370.00 342.64,370.00 343.88,370.00 345.12,370.00 346.36,370.00 347.60,370.00 348.84,370.00 350.08,370.00 351.32,370.00 352.56,370.00 353.80,370.00 355.04,370.00 356.28,370.00 357.52,370.00 358.76,370.00 360.00,370.00 361.24,370.00 362.48,370.00 363.72,370.00 364.96,370.00 366.20,370.00 367.44,370.00 368.68,370.00 369.92,370.00 371.16,370.00 372.40,370.00 373.64,370.00 374.88,370.00 376.12,370.00 377.36,370.00 378.60,370.00 379.84,370.00 381.08,370.00 382.32,370.00 383.56,370.00 384.80,370.00 386.04,370.00 387.28,370.00 388.52,370.00 389.76,370.00 391.00,370.00 392.24,370.00 393.48,370.00 394.72,370.00 395.96,370.00 397.20,370.00 398.44,370.00 399.68,370.00 400.92,370.00 402.16,370.00 403.40,370.00 404.64,370.00 405.88,370.00 407.12,370.00 408.36,370.00 409.60,370.00 410.84,370.00 412.08,370.00 413.32,370.00 414.56,370.00 415.80,370.00 417.04,370.00 418.28,370.00 419.52,370.00 420.76,370.00 422.00,370.00 423.24,370.00 424.48,370.00 425.72,370.00 426.96,370.00 428.20,370.00 429.44,370.00 430.68,370.00 431.92,370.00 433.16,370.00 434.40,370.00 435.64,370.00 436.88,370.00 438.12,370.00 439.36,370.00 440.60,370.00 441.84,370.00 443.08,370.00 444.32,370.00 445.56,370.00 446.80,370.00 448.04,370.00 449.28,370.00 450.52,370.00 451.76,370.00 453.00,370.00 454.24,370.00 455.48,370.00 456.72,370.00 457.96,370.00 459.20,370.00 460.44,370.00 461.68,370.00 462.92,370.00 464.16,370.00 465.40,370.00 466.64,370.00 467.88,370.00 469.12,370.00 470.36,370.00 471.60,370.00 472.84,370.00 474.08,370.00 475.32,370.00 476.56,370.00 477.80,370.00 479.04,370.00 480.28,370.00 481.52,370.00 482.76,370.00 484.00,370.00 485.24,370.00 486.48,370.00 487.72,370.00 488.96,370.00 490.20,370.00 491.44,370.00 492.68,370.00 493.92,370.00 495.16,370.00 496.40,370.00 497.64,370.00 498.88,370.00 500.12,370.00 501.36,370.00 502.60,370.00 503.84,370.00 505.08,370.00 506.32,370.00 507.56,370.00 508.80,370.00 510.04,370.00 511.28,370.00 512.52,370.00 513.76,370.00 515.00,370.00 516.24,370.00 517.48,370.00 518.72,370.00 519.96,370.00 521.20,370.00 522.44,370.00 523.68,370.00 524.92,370.00 526.16,370.00 527.40,370.00 528.64,370.00 529.88,370.00 531.12,370.00 532.36,370.00 533.60,370.00 534.84,370.00 536.08,370.00 537.32,370.00 538.56,370.00 539.80,370.00 541.04,370.00 542.28,370.00 543.52,370.00 544.76,370.00 546.00,370.00 547.24,370.00 548.48,370.00 549.72,370.00 550.96,370.00 552.20,370.00 553.44,370.00 554.68,370.00 555.92,370.00 557.16,370.00 558.40,370.00 559.64,370.00 560.88,370.00 562.12,370.00 563.36,370.00 564.60,370.00 565.84,370.00 567.08,370.00 568.32,370.00 569.56,370.00 570.80,370.00 572.04,370.00 573.28,370.00 574.52,370.00 575.76,370.00 577.00,370.00 578.24,370.00 579.48,370.00 580.72,370.00 581.96,370.00 583.20,370.00 584.44,370.00 585.68,370.00 586.92,370.00 588.16,370.00 589.40,370.00 590.64,370.00 591.88,370.00 593.12,370.00 594.36,370.00 595.60,370.00 596.84,370.00 598.08,370.00 599.32,370.00 600.56,370.00 601.80,370.00 603.04,370.00 604.28,370.00 605.52,370.00 606.76,370.00 608.00,370.00 609.24,370.00 610.48,370.00 611.72,370.00 612.96,370.00 614.20,370.00 615.44,370.00 616.68,370.00 617.92,370.00 619.16,370.00 620.40,370.00 621.64,370.00 622.88,370.00 624.12,370.00 625.36,370.00 626.60,370.00 627.84,370.00 629.08,370.00 630.32,370.00 631.56,370.00 632.80,370.00 634.04,370.00 635.28,370.00 636.52,370.00 637.76,370.00 639.00,370.00 640.24,370.00 641.48,370.00 642.72,370.00 643.96,370.00 645.20,370.00 646.44,370.00 647.68,370.00 648.92,370.00 650.16,370.00 651.40,370.00 652.64,370.00 653.88,370.00 655.12,370.00 656.36,370.00 657.60,370.00 658.84,370.00 660.08,370.00 661.32,370.00 662.56,370.00 663.80,370.00 665.04,370.00 666.28,370.00 667.52,370.00 668.76,370.00 670.00,370.00"><title>BP (final=0.0000)</title></polyline><polyline fill="none" stroke="#f59e0b" stroke-width="2" points="50.00,65.24 51.24,253.43 52.48,264.69 53.72,272.81 54.96,281.28 56.20,291.60 57.44,303.75 58.68,316.80 59.92,329.52 61.16,340.78 62.40,349.91 63.64,356.78 64.88,361.61 66.12,364.84 67.36,366.90 68.60,368.17 69.84,368.94 71.08,369.39 72.32,369.65 73.56,369.80 74.80,369.89 76.04,369.94 77.28,369.97 78.52,369.98 79.76,369.99 81.00,369.99 82.24,370.00 83.48,370.00 84.72,370.00 85.96,370.00 87.20,370.00 88.44,370.00 89.68,370.00 90.92,370.00 92.16,370.00 93.40,370.00 94.64,370.00 95.88,370.00 97.12,370.00 98.36,370.00 99.60,370.00 100.84,370.00 102.08,370.00 103.32,370.00 104.56,370.00 105.80,370.00 107.04,370.00 108.28,370.00 109.52,370.00 110.76,370.00 112.00,370.00 113.24,370.00 114.48,370.00 115.72,370.00 116.96,370.00 118.20,370.00 119.44,370.00 120.68,370.00 121.92,370.00 123.16,370.00 124.40,370.00 125.64,370.00 126.88,370.00 128.12,370.00 129.36,370.00 130.60,370.00 131.84,370.00 133.08,370.00 134.32,370.00 135.56,370.00 136.80,370.00 138.04,370.00 139.28,370.00 140.52,370.00 141.76,370.00 143.00,370.00 144.24,370.00 145.48,370.00 146.72,370.00 147.96,370.00 149.20,370.00 150.44,370.00 151.68,370.00 152.92,370.00 154.16,370.00 155.40,370.00 156.64,370.00 157.88,370.00 159.12,370.00 160.36,370.00 161.60,370.00 162.84,370.00 164.08,370.00 165.32,370.00 166.56,370.00 167.80,370.00 169.04,370.00 170.28,370.00 171.52,370.00 172.76,370.00 174.00,370.00 175.24,370.00 176.48,370.00 177.72,370.00 178.96,370.00 180.20,370.00 181.44,370.00 182.68,370.00 183.92,370.00 185.16,370.00 186.40,370.00 187.64,370.00 188.88,370.00 190.12,370.00 191.36,370.00 192.60,370.00 193.84,370.00 195.08,370.00 196.32,370.00 197.56,370.00 198.80,370.00 200.04,370.00 201.28,370.00 202.52,370.00 203.76,370.00 205.00,370.00 206.24,370.00 207.48,370.00 208.72,370.00 209.96,370.00 211.20,370.00 212.44,370.00 213.68,370.00 214.92,370.00 216.16,370.00 217.40,370.00 218.64,370.00 219.88,370.00 221.12,370.00 222.36,370.00 223.60,370.00 224.84,370.00 226.08,370.00 227.32,370.00 228.56,370.00 229.80,370.00 231.04,370.00 232.28,370.00 233.52,370.00 234.76,370.00 236.00,370.00 237.24,370.00 238.48,370.00 239.72,370.00 240.96,370.00 242.20,370.00 243.44,370.00 244.68,370.00 245.92,370.00 247.16,370.00 248.40,370.00 249.64,370.00 250.88,370.00 252.12,370.00 253.36,370.00 254.60,370.00 255.84,370.00 257.08,370.00 258.32,370.00 259.56,370.00 260.80,370.00 262.04,370.00 263.28,370.00 264.52,370.00 265.76,370.00 267.00,370.00 268.24,370.00 269.48,370.00 270.72,370.00 271.96,370.00 273.20,370.00 274.44,370.00 275.68,370.00 276.92,370.00 278.16,370.00 279.40,370.00 280.64,370.00 281.88,370.00 283.12,370.00 284.36,370.00 285.60,370.00 286.84,370.00 288.08,370.00 289.32,370.00 290.56,370.00 291.80,370.00 293.04,370.00 294.28,370.00 295.52,370.00 296.76,370.00 298.00,370.00 299.24,370.00 300.48,370.00 301.72,370.00 302.96,370.00 304.20,370.00 305.44,370.00 306.68,370.00 307.92,370.00 309.16,370.00 310.40,370.00 311.64,370.00 312.88,370.00 314.12,370.00 315.36,370.00 316.60,370.00 317.84,370.00 319.08,370.00 320.32,370.00 321.56,370.00 322.80,370.00 324.04,370.00 325.28,370.00 326.52,370.00 327.76,370.00 329.00,370.00 330.24,370.00 331.48,370.00 332.72,370.00 333.96,370.00 335.20,370.00 336.44,370.00 337.68,370.00 338.92,370.00 340.16,370.00 341.40,370.00 342.64,370.00 343.88,370.00 345.12,370.00 346.36,370.00 347.60,370.00 348.84,370.00 350.08,370.00 351.32,370.00 352.56,370.00 353.80,370.00 355.04,370.00 356.28,370.00 357.52,370.00 358.76,370.00 360.00,370.00 361.24,370.00 362.48,370.00 363.72,370.00 364.96,370.00 366.20,370.00 367.44,370.00 368.68,370.00 369.92,370.00 371.16,370.00 372.40,370.00 373.64,370.00 374.88,370.00 376.12,370.00 377.36,370.00 378.60,370.00 379.84,370.00 381.08,370.00 382.32,370.00 383.56,370.00 384.80,370.00 386.04,370.00 387.28,370.00 388.52,370.00 389.76,370.00 391.00,370.00 392.24,370.00 393.48,370.00 394.72,370.00 395.96,370.00 397.20,370.00 398.44,370.00 399.68,370.00 400.92,370.00 402.16,370.00 403.40,370.00 404.64,370.00 405.88,370.00 407.12,370.00 408.36,370.00 409.60,370.00 410.84,370.00 412.08,370.00 413.32,370.00 414.56,370.00 415.80,370.00 417.04,370.00 418.28,370.00 419.52,370.00 420.76,370.00 422.00,370.00 423.24,370.00 424.48,370.00 425.72,370.00 426.96,370.00 428.20,370.00 429.44,370.00 430.68,370.00 431.92,370.00 433.16,370.00 434.40,370.00 435.64,370.00 436.88,370.00 438.12,370.00 439.36,370.00 440.60,370.00 441.84,370.00 443.08,370.00 444.32,370.00 445.56,370.00 446.80,370.00 448.04,370.00 449.28,370.00 450.52,370.00 451.76,370.00 453.00,370.00 454.24,370.00 455.48,370.00 456.72,370.00 457.96,370.00 459.20,370.00 460.44,370.00 461.68,370.00 462.92,370.00 464.16,370.00 465.40,370.00 466.64,370.00 467.88,370.00 469.12,370.00 470.36,370.00 471.60,370.00 472.84,370.00 474.08,370.00 475.32,370.00 476.56,370.00 477.80,370.00 479.04,370.00 480.28,370.00 481.52,370.00 482.76,370.00 484.00,370.00 485.24,370.00 486.48,370.00 487.72,370.00 488.96,370.00 490.20,370.00 491.44,370.00 492.68,370.00 493.92,370.00 495.16,370.00 496.40,370.00 497.64,370.00 498.88,370.00 500.12,370.00 501.36,370.00 502.60,370.00 503.84,370.00 505.08,370.00 506.32,370.00 507.56,370.00 508.80,370.00 510.04,370.00 511.28,370.00 512.52,370.00 513.76,370.00 515.00,370.00 516.24,370.00 517.48,370.00 518.72,370.00 519.96,370.00 521.20,370.00 522.44,370.00 523.68,370.00 524.92,370.00 526.16,370.00 527.40,370.00 528.64,370.00 529.88,370.00 531.12,370.00 532.36,370.00 533.60,370.00 534.84,370.00 536.08,370.00 537.32,370.00 538.56,370.00 539.80,370.00 541.04,370.00 542.28,370.00 543.52,370.00 544.76,370.00 546.00,370.00 547.24,370.00 548.48,370.00 549.72,370.00 550.96,370.00 552.20,370.00 553.44,370.00 554.68,370.00 555.92,370.00 557.16,370.00 558.40,370.00 559.64,370.00 560.88,370.00 562.12,370.00 563.36,370.00 564.60,370.00 565.84,370.00 567.08,370.00 568.32,370.00 569.56,370.00 570.80,370.00 572.04,370.00 573.28,370.00 574.52,370.00 575.76,370.00 577.00,370.00 578.24,370.00 579.48,370.00 580.72,370.00 581.96,370.00 583.20,370.00 584.44,370.00 585.68,370.00 586.92,370.00 588.16,370.00 589.40,370.00 590.64,370.00 591.88,370.00 593.12,370.00 594.36,370.00 595.60,370.00 596.84,370.00 598.08,370.00 599.32,370.00 600.56,370.00 601.80,370.00 603.04,370.00 604.28,370.00 605.52,370.00 606.76,370.00 608.00,370.00 609.24,370.00 610.48,370.00 611.72,370.00 612.96,370.00 614.20,370.00 615.44,370.00 616.68,370.00 617.92,370.00 619.16,370.00 620.40,370.00 621.64,370.00 622.88,370.00 624.12,370.00 625.36,370.00 626.60,370.00 627.84,370.00 629.08,370.00 630.32,370.00 631.56,370.00 632.80,370.00 634.04,370.00 635.28,370.00 636.52,370.00 637.76,370.00 639.00,370.00 640.24,370.00 641.48,370.00 642.72,370.00 643.96,370.00 645.20,370.00 646.44,370.00 647.68,370.00 648.92,370.00 650.16,370.00 651.40,370.00 652.64,370.00 653.88,370.00 655.12,370.00 656.36,370.00 657.60,370.00 658.84,370.00 660.08,370.00 661.32,370.00 662.56,370.00 663.80,370.00 665.04,370.00 666.28,370.00 667.52,370.00 668.76,370.00 670.00,370.00"><title>EDLA (final=0.0000)</title></polyline><rect x="470" y="58" width="190" height="56" fill="#f9fafb" stroke="#e5e7eb" rx="6"/><line x1="482" y1="76" x2="502" y2="76" stroke="#3b82f6" stroke-width="3"/><text x="510" y="80" font-size="12" fill="#111827">BP (final=0.0000)</text><line x1="482" y1="98" x2="502" y2="98" stroke="#f59e0b" stroke-width="3"/><text x="510" y="102" font-size="12" fill="#111827">EDLA (final=0.0000)</text></svg>